<svg version="1.1" id="Layer_1" xmlns="http://www.w3.org/2000/svg" xmlns:xlink="http://www.w3.org/1999/xlink" x="0px" y="0px"
	 width="100%" viewBox="0 0 2560 2560" enable-background="new 0 0 2560 2560" xml:space="preserve">
<path fill="#FFFFFE" opacity="1.000000" stroke="none" 
	d="
M2.000000,870.000000 
	C2.000000,580.000000 2.000000,291.000000 2.000000,2.000000 
	C855.333313,2.000000 1708.666626,2.000000 2562.000000,2.000000 
	C2562.000000,855.333313 2562.000000,1708.666626 2562.000000,2562.000000 
	C1708.666626,2562.000000 855.333313,2562.000000 2.000000,2562.000000 
	C2.000000,1998.333374 2.000000,1434.666626 2.000000,870.000000 
M97.654045,1507.000000 
	C97.654076,1634.985840 97.546661,1762.971680 97.752235,1890.957275 
	C97.789658,1914.260498 98.550453,1937.594849 99.946594,1960.856689 
	C102.860413,2009.405518 113.667603,2056.434814 130.144867,2102.056152 
	C155.694595,2172.796631 193.885712,2235.939941 245.199051,2291.165283 
	C307.448944,2358.160400 381.748108,2406.752930 467.728912,2437.326660 
	C527.588989,2458.612305 589.535583,2468.158691 653.103271,2468.140869 
	C1073.726318,2468.023682 1494.349365,2468.070068 1914.972412,2468.104492 
	C1942.005493,2468.106689 1968.838745,2466.144775 1995.637817,2462.444580 
	C2074.146729,2451.605469 2146.562500,2424.261475 2213.176270,2381.803467 
	C2286.894531,2334.817139 2346.424072,2273.696045 2391.254395,2198.510254 
	C2417.333984,2154.771729 2437.132568,2108.345703 2450.410400,2059.132568 
	C2463.866455,2009.259521 2469.370605,1958.446899 2469.366943,1906.903809 
	C2469.338867,1491.280273 2469.362061,1075.656738 2469.327393,660.033203 
	C2469.324951,631.029907 2467.944336,602.108765 2463.992676,573.319519 
	C2458.810059,535.558350 2450.155518,498.639313 2437.007080,462.893494 
	C2414.029785,400.427612 2381.659912,343.403992 2338.376465,292.542877 
	C2281.168945,225.320160 2212.113770,174.452423 2130.973877,139.959946 
	C2060.694824,110.084480 1987.085327,96.385788 1910.926514,96.365906 
	C1492.969849,96.256775 1075.013184,96.246979 657.056702,96.486885 
	C633.113220,96.500626 609.054993,97.965813 585.253174,100.593742 
	C538.701599,105.733429 493.610291,117.342834 449.944672,134.432159 
	C353.206909,172.292236 273.647125,232.916733 210.408798,315.119446 
	C168.467102,369.638885 138.661301,430.370667 119.316338,496.235138 
	C103.809898,549.030518 97.569550,603.117249 97.592247,658.087830 
	C97.708809,940.391907 97.650818,1222.695923 97.654045,1507.000000 
z"/>
<path fill="#FAA313" opacity="1.000000" stroke="none" 
	d="
M97.653915,1506.000000 
	C97.650818,1222.695923 97.708809,940.391907 97.592247,658.087830 
	C97.569550,603.117249 103.809898,549.030518 119.316338,496.235138 
	C138.661301,430.370667 168.467102,369.638885 210.408798,315.119446 
	C273.647125,232.916733 353.206909,172.292236 449.944672,134.432159 
	C493.610291,117.342834 538.701599,105.733429 585.253174,100.593742 
	C609.054993,97.965813 633.113220,96.500626 657.056702,96.486885 
	C1075.013184,96.246979 1492.969849,96.256775 1910.926514,96.365906 
	C1987.085327,96.385788 2060.694824,110.084480 2130.973877,139.959946 
	C2212.113770,174.452423 2281.168945,225.320160 2338.376465,292.542877 
	C2381.659912,343.403992 2414.029785,400.427612 2437.007080,462.893494 
	C2450.155518,498.639313 2458.810059,535.558350 2463.992676,573.319519 
	C2467.944336,602.108765 2469.324951,631.029907 2469.327393,660.033203 
	C2469.362061,1075.656738 2469.338867,1491.280273 2469.366943,1906.903809 
	C2469.370605,1958.446899 2463.866455,2009.259521 2450.410400,2059.132568 
	C2437.132568,2108.345703 2417.333984,2154.771729 2391.254395,2198.510254 
	C2346.424072,2273.696045 2286.894531,2334.817139 2213.176270,2381.803467 
	C2146.562500,2424.261475 2074.146729,2451.605469 1995.637817,2462.444580 
	C1968.838745,2466.144775 1942.005493,2468.106689 1914.972412,2468.104492 
	C1494.349365,2468.070068 1073.726318,2468.023682 653.103271,2468.140869 
	C589.535583,2468.158691 527.588989,2458.612305 467.728912,2437.326660 
	C381.748108,2406.752930 307.448944,2358.160400 245.199051,2291.165283 
	C193.885712,2235.939941 155.694595,2172.796631 130.144867,2102.056152 
	C113.667603,2056.434814 102.860413,2009.405518 99.946594,1960.856689 
	C98.550453,1937.594849 97.789658,1914.260498 97.752235,1890.957275 
	C97.546661,1762.971680 97.654076,1634.985840 97.653915,1506.000000 
M1839.000000,171.380646 
	C1448.677246,171.380753 1058.354492,171.346497 668.031799,171.477219 
	C647.398743,171.484131 626.709778,172.165192 606.144043,173.774643 
	C541.428406,178.839233 480.792175,197.936310 423.785095,228.710632 
	C349.441193,268.843994 289.945129,324.914642 245.015121,396.403534 
	C215.115036,443.977997 194.341949,495.328430 182.713928,550.301208 
	C174.822479,587.609070 172.061905,625.400146 172.072067,663.516785 
	C172.181244,1073.173828 172.166748,1482.830811 172.087067,1892.487793 
	C172.080963,1923.851807 173.250565,1955.063965 177.671692,1986.181274 
	C185.205276,2039.204590 202.008194,2089.184082 226.537811,2136.560059 
	C246.087799,2174.318359 270.756409,2208.531738 299.592590,2239.913330 
	C347.074829,2291.586914 403.345032,2330.540039 467.883423,2357.473633 
	C527.029663,2382.156982 588.977905,2393.758301 653.024414,2393.767090 
	C1073.347900,2393.824219 1493.671265,2393.815918 1913.994751,2393.765137 
	C1951.440430,2393.760742 1988.586914,2390.027832 2025.001465,2381.275635 
	C2129.879639,2356.069824 2216.953857,2301.952881 2285.860107,2218.881592 
	C2324.828613,2171.902832 2353.370850,2119.187988 2371.985840,2061.057617 
	C2388.190186,2010.454224 2394.655762,1958.572021 2394.628662,1905.506348 
	C2394.417480,1490.516113 2394.539307,1075.525879 2394.420410,660.535706 
	C2394.415039,641.899170 2393.609375,623.224487 2392.257324,604.634460 
	C2389.314697,564.180115 2380.165039,524.920227 2366.227051,486.950592 
	C2332.073730,393.910156 2274.764893,318.154266 2194.058350,260.484344 
	C2115.127930,204.083755 2027.012329,174.381927 1929.991211,171.819824 
	C1900.344360,171.036911 1870.664673,171.491898 1839.000000,171.380646 
z"/>
<path fill="#203354" opacity="1.000000" stroke="none" 
	d="
M1840.000000,171.380310 
	C1870.664673,171.491898 1900.344360,171.036911 1929.991211,171.819824 
	C2027.012329,174.381927 2115.127930,204.083755 2194.058350,260.484344 
	C2274.764893,318.154266 2332.073730,393.910156 2366.227051,486.950592 
	C2380.165039,524.920227 2389.314697,564.180115 2392.257324,604.634460 
	C2393.609375,623.224487 2394.415039,641.899170 2394.420410,660.535706 
	C2394.539307,1075.525879 2394.417480,1490.516113 2394.628662,1905.506348 
	C2394.655762,1958.572021 2388.190186,2010.454224 2371.985840,2061.057617 
	C2353.370850,2119.187988 2324.828613,2171.902832 2285.860107,2218.881592 
	C2216.953857,2301.952881 2129.879639,2356.069824 2025.001465,2381.275635 
	C1988.586914,2390.027832 1951.440430,2393.760742 1913.994751,2393.765137 
	C1493.671265,2393.815918 1073.347900,2393.824219 653.024414,2393.767090 
	C588.977905,2393.758301 527.029663,2382.156982 467.883423,2357.473633 
	C403.345032,2330.540039 347.074829,2291.586914 299.592590,2239.913330 
	C270.756409,2208.531738 246.087799,2174.318359 226.537811,2136.560059 
	C202.008194,2089.184082 185.205276,2039.204590 177.671692,1986.181274 
	C173.250565,1955.063965 172.080963,1923.851807 172.087067,1892.487793 
	C172.166748,1482.830811 172.181244,1073.173828 172.072067,663.516785 
	C172.061905,625.400146 174.822479,587.609070 182.713928,550.301208 
	C194.341949,495.328430 215.115036,443.977997 245.015121,396.403534 
	C289.945129,324.914642 349.441193,268.843994 423.785095,228.710632 
	C480.792175,197.936310 541.428406,178.839233 606.144043,173.774643 
	C626.709778,172.165192 647.398743,171.484131 668.031799,171.477219 
	C1058.354492,171.346497 1448.677246,171.380753 1840.000000,171.380310 
M1400.999756,1167.190430 
	C1455.309570,1167.190552 1509.619385,1167.179199 1563.929199,1167.212524 
	C1568.252686,1167.215210 1572.632324,1167.143921 1576.888916,1167.767944 
	C1590.039673,1169.695557 1598.774902,1177.160034 1602.276489,1189.986816 
	C1603.567993,1194.718018 1603.857666,1199.840088 1603.868042,1204.785400 
	C1603.976074,1256.096069 1603.233887,1307.420410 1604.220947,1358.712402 
	C1604.733887,1385.371582 1591.530151,1399.724609 1563.755859,1399.368042 
	C1496.130005,1398.500122 1428.485352,1399.085083 1360.848267,1399.084961 
	C1356.962036,1399.084961 1353.075684,1399.084961 1349.025635,1399.084961 
	C1349.025635,1420.301392 1349.025635,1440.160767 1349.025635,1461.179199 
	C1352.715088,1461.179199 1355.957764,1461.179077 1359.200317,1461.179321 
	C1375.859741,1461.180054 1392.519043,1461.181519 1409.178467,1461.181519 
	C1462.488525,1461.181396 1515.799927,1460.934814 1569.108154,1461.248169 
	C1625.270752,1461.578369 1665.341553,1418.771973 1665.655396,1368.771484 
	C1666.014893,1311.465820 1666.203735,1254.150635 1665.577393,1196.849365 
	C1664.964478,1140.765747 1617.306152,1104.893555 1572.468628,1105.444580 
	C1500.510986,1106.328979 1428.534546,1105.666382 1356.566040,1105.704712 
	C1354.060303,1105.706055 1351.554688,1106.213745 1348.627563,1106.531128 
	C1348.521973,1127.027344 1348.431030,1146.794189 1348.668091,1167.190063 
	C1366.421997,1167.190063 1382.710815,1167.190063 1400.999756,1167.190430 
M939.304016,1377.541748 
	C941.146362,1389.800781 944.055359,1401.743530 950.360413,1412.572632 
	C969.529907,1445.497314 998.581604,1461.114136 1036.301147,1461.156372 
	C1104.933228,1461.232910 1173.565430,1461.187500 1242.197510,1461.162109 
	C1244.746094,1461.161133 1247.294678,1460.835205 1249.939819,1460.654175 
	C1249.939819,1439.836548 1249.939819,1419.719360 1249.939819,1399.086182 
	C1245.618530,1399.086182 1241.979126,1399.086060 1238.339600,1399.086182 
	C1172.372803,1399.087402 1106.406006,1399.098511 1040.439209,1399.067871 
	C1036.115845,1399.065918 1031.748291,1399.078613 1027.477539,1398.510986 
	C1013.552246,1396.660522 1003.113342,1386.071167 1001.391785,1372.217407 
	C1000.982544,1368.924316 1000.922363,1365.571777 1000.920593,1362.246460 
	C1000.893127,1309.606323 1000.890076,1256.966187 1000.925354,1204.326050 
	C1000.927795,1200.670288 1000.994629,1196.974609 1001.512207,1193.366455 
	C1003.377258,1180.364136 1013.297791,1170.073730 1026.241943,1167.966064 
	C1030.811279,1167.221924 1035.533936,1167.220215 1040.186768,1167.217163 
	C1106.486694,1167.173340 1172.786743,1167.187256 1239.086670,1167.187256 
	C1242.641113,1167.187256 1246.195679,1167.187256 1250.175781,1167.187256 
	C1250.175781,1146.187256 1250.175781,1126.324097 1250.175781,1105.668335 
	C1246.487915,1105.668335 1243.199829,1105.668091 1239.911621,1105.668457 
	C1222.253906,1105.670166 1204.596069,1105.672729 1186.938354,1105.673706 
	C1135.297729,1105.676514 1083.656738,1105.781494 1032.016479,1105.635010 
	C1008.285889,1105.567749 987.708801,1113.270996 970.013916,1129.047119 
	C948.216858,1148.480347 938.565247,1173.281616 938.417419,1201.896606 
	C938.138672,1255.868042 938.322021,1309.841919 938.362488,1363.814697 
	C938.365479,1367.803223 938.763123,1371.791382 939.304016,1377.541748 
M1295.000000,1252.191284 
	C1234.526367,1252.191284 1174.052612,1252.191284 1113.371826,1252.191284 
	C1113.371826,1273.465088 1113.371826,1293.316162 1113.371826,1313.351929 
	C1239.661011,1313.351929 1365.379639,1313.351929 1491.214355,1313.351929 
	C1491.214355,1292.823120 1491.214355,1272.994507 1491.214355,1252.191406 
	C1426.100220,1252.191406 1361.550171,1252.191406 1295.000000,1252.191284 
z"/>
<path fill="#FBFCFC" opacity="1.000000" stroke="none" 
	d="
M1399.999756,1167.190186 
	C1382.710815,1167.190063 1366.421997,1167.190063 1348.668091,1167.190063 
	C1348.431030,1146.794189 1348.521973,1127.027344 1348.627563,1106.531128 
	C1351.554688,1106.213745 1354.060303,1105.706055 1356.566040,1105.704712 
	C1428.534546,1105.666382 1500.510986,1106.328979 1572.468628,1105.444580 
	C1617.306152,1104.893555 1664.964478,1140.765747 1665.577393,1196.849365 
	C1666.203735,1254.150635 1666.014893,1311.465820 1665.655396,1368.771484 
	C1665.341553,1418.771973 1625.270752,1461.578369 1569.108154,1461.248169 
	C1515.799927,1460.934814 1462.488525,1461.181396 1409.178467,1461.181519 
	C1392.519043,1461.181519 1375.859741,1461.180054 1359.200317,1461.179321 
	C1355.957764,1461.179077 1352.715088,1461.179199 1349.025635,1461.179199 
	C1349.025635,1440.160767 1349.025635,1420.301392 1349.025635,1399.084961 
	C1353.075684,1399.084961 1356.962036,1399.084961 1360.848267,1399.084961 
	C1428.485352,1399.085083 1496.130005,1398.500122 1563.755859,1399.368042 
	C1591.530151,1399.724609 1604.733887,1385.371582 1604.220947,1358.712402 
	C1603.233887,1307.420410 1603.976074,1256.096069 1603.868042,1204.785400 
	C1603.857666,1199.840088 1603.567993,1194.718018 1602.276489,1189.986816 
	C1598.774902,1177.160034 1590.039673,1169.695557 1576.888916,1167.767944 
	C1572.632324,1167.143921 1568.252686,1167.215210 1563.929199,1167.212524 
	C1509.619385,1167.179199 1455.309570,1167.190552 1399.999756,1167.190186 
z"/>
<path fill="#FCFCFD" opacity="1.000000" stroke="none" 
	d="
M939.140625,1376.660767 
	C938.763123,1371.791382 938.365479,1367.803223 938.362488,1363.814697 
	C938.322021,1309.841919 938.138672,1255.868042 938.417419,1201.896606 
	C938.565247,1173.281616 948.216858,1148.480347 970.013916,1129.047119 
	C987.708801,1113.270996 1008.285889,1105.567749 1032.016479,1105.635010 
	C1083.656738,1105.781494 1135.297729,1105.676514 1186.938354,1105.673706 
	C1204.596069,1105.672729 1222.253906,1105.670166 1239.911621,1105.668457 
	C1243.199829,1105.668091 1246.487915,1105.668335 1250.175781,1105.668335 
	C1250.175781,1126.324097 1250.175781,1146.187256 1250.175781,1167.187256 
	C1246.195679,1167.187256 1242.641113,1167.187256 1239.086670,1167.187256 
	C1172.786743,1167.187256 1106.486694,1167.173340 1040.186768,1167.217163 
	C1035.533936,1167.220215 1030.811279,1167.221924 1026.241943,1167.966064 
	C1013.297791,1170.073730 1003.377258,1180.364136 1001.512207,1193.366455 
	C1000.994629,1196.974609 1000.927795,1200.670288 1000.925354,1204.326050 
	C1000.890076,1256.966187 1000.893127,1309.606323 1000.920593,1362.246460 
	C1000.922363,1365.571777 1000.982544,1368.924316 1001.391785,1372.217407 
	C1003.113342,1386.071167 1013.552246,1396.660522 1027.477539,1398.510986 
	C1031.748291,1399.078613 1036.115845,1399.065918 1040.439209,1399.067871 
	C1106.406006,1399.098511 1172.372803,1399.087402 1238.339600,1399.086182 
	C1241.979126,1399.086060 1245.618530,1399.086182 1249.939819,1399.086182 
	C1249.939819,1419.719360 1249.939819,1439.836548 1249.939819,1460.654175 
	C1247.294678,1460.835205 1244.746094,1461.161133 1242.197510,1461.162109 
	C1173.565430,1461.187500 1104.933228,1461.232910 1036.301147,1461.156372 
	C998.581604,1461.114136 969.529907,1445.497314 950.360413,1412.572632 
	C944.055359,1401.743530 941.146362,1389.800781 939.140625,1376.660767 
z"/>
<path fill="#FBFCFC" opacity="1.000000" stroke="none" 
	d="
M1296.000000,1252.191406 
	C1361.550171,1252.191406 1426.100220,1252.191406 1491.214355,1252.191406 
	C1491.214355,1272.994507 1491.214355,1292.823120 1491.214355,1313.351929 
	C1365.379639,1313.351929 1239.661011,1313.351929 1113.371826,1313.351929 
	C1113.371826,1293.316162 1113.371826,1273.465088 1113.371826,1252.191284 
	C1174.052612,1252.191284 1234.526367,1252.191284 1296.000000,1252.191406 
z"/>
</svg>